# xmcd CD database file
#
# Track frame offsets:
#	150
#	17219
#	34303
#	51530
#	68210
#	79442
#	95926
#	111664
#
# Disc length: 1688 seconds
#
# Revision: 0
# Processed by: cddbd v1.5.1PL2 Copyright (c) Steve Scherf et al.
# Submitted via: CDex 1.51
#
DISCID=7d069608
DTITLE=A.M. Beckham, Jr. - On the Range
DYEAR=2003
DGENRE=Country
TTITLE0=Help Me Lose My Blue
TTITLE1=Cowboy Saturday Nite
TTITLE2=Old Memory of You
TTITLE3=Hope for Good Lady
TTITLE4=Cowboy Boogie
TTITLE5=Love Gone Wrong
TTITLE6=Cold Beer and Ladies Too
TTITLE7=Cowboy Life On KS Trail
EXTD=YEAR: 2003
EXTT0=
EXTT1=
EXTT2=
EXTT3=
EXTT4=
EXTT5=
EXTT6=
EXTT7=
PLAYORDER=
